# xmcd
# Copyright (C) 1995-1998 Ti Kan
#
# Track frame offsets:
#       150
#       18307
#       36872
#       59181
#
# Disc length: 1099 seconds
#
# Revision: 0
# Processed by: cddbd v1.4PL0 Copyright (c) Steve Scherf et al.
# Submitted via: CD-Transfer v1.0
#
DISCID=32044904
DTITLE=Flower - Flower
DYEAR=2001
DGENRE=
TTITLE0=The Great Blind Degree
TTITLE1=She Is Coming Home
TTITLE2=Happy Love Song
TTITLE3=Everything
EXTD=
EXTT0=
EXTT1=
EXTT2=
EXTT3=
PLAYORDER=
